<?xml version="1.0" encoding="UTF-8"?>
<svg width="51px" height="85px" viewBox="0 0 51 85" version="1.1" xmlns="http://www.w3.org/2000/svg" xmlns:xlink="http://www.w3.org/1999/xlink">
    <!-- Generator: sketchtool 41.2 (35397) - http://www.bohemiancoding.com/sketch -->
    <title>597D3109-9125-4DCF-AC9A-A813FE169C79</title>
    <desc>Created with sketchtool.</desc>
    <defs></defs>
    <g id="Page-1" stroke="none" stroke-width="1" fill="none" fill-rule="evenodd">
        <g id="Nutrition---Gut-Health---v2" transform="translate(-411.000000, -13136.000000)" fill="#0A55F7">
            <g id="Group-78" transform="translate(309.000000, 12642.000000)">
                <g id="Group-80" transform="translate(96.000000, 142.000000)">
                    <g id="if_icon-137-document-certificate_314252" transform="translate(6.000000, 352.000000)">
                        <g id="Group">
                            <g id="Page-1">
                                <g id="icon-137-document-certificate">
                                    <path d="M39.741952,66.2720865 L39.741952,69.0625 L45.0409843,69.0625 C46.5041845,69.0625 47.6903424,67.8806114 47.6903424,66.4237874 L47.6903424,21.25 L37.0869593,21.25 C34.1634966,21.25 31.7935616,18.8950887 31.7935616,15.9217775 L31.7935616,2.65625 L5.28720968,2.65625 C3.83042267,2.65625 2.64946346,3.86554202 2.64946346,5.30043274 L2.64946346,66.4183173 C2.64946346,67.878659 3.85419816,69.0625 5.29882148,69.0625 L26.4946346,69.0625 L26.4946346,69.0625 L26.4946346,66.2720865 C24.8556938,64.5952796 23.8451712,62.2987647 23.8451712,59.765625 C23.8451712,54.6311025 27.9968892,50.46875 33.1182933,50.46875 C38.2396974,50.46875 42.3914154,54.6311025 42.3914154,59.765625 C42.3914154,62.2987647 41.3808928,64.5952796 39.741952,66.2720865 L39.741952,66.2720865 L39.741952,66.2720865 Z M29.1440981,68.1678338 L29.1440981,78.6249352 L33.1182933,74.6406412 L37.0924885,78.6249352 L37.0924885,68.1678338 C35.887969,68.7415041 34.5405218,69.0625 33.1182933,69.0625 C31.6960648,69.0625 30.3486176,68.7415041 29.1440981,68.1678338 L29.1440981,68.1678338 L29.1440981,68.1678338 Z M39.741952,71.71875 L45.0477095,71.71875 C47.9704537,71.71875 50.3398058,69.3328733 50.3398058,66.4307005 L50.3398058,18.59375 L50.3398058,18.59375 L34.443025,0 L5.30623979,0 C2.37568447,0 0,2.38621116 0,5.33197015 L0,66.38678 C0,69.3315457 2.36047427,71.71875 5.29209637,71.71875 L26.4946346,71.71875 L26.4946346,85 L33.1182933,78.359375 L39.741952,85 L39.741952,71.71875 L39.741952,71.71875 L39.741952,71.71875 Z M34.443025,3.984375 L34.443025,15.9141655 C34.443025,17.3940591 35.6370087,18.59375 37.0838481,18.59375 L46.895374,18.59375 L34.443025,3.984375 L34.443025,3.984375 Z M7.94839039,18.59375 L7.94839039,21.25 L26.4946346,21.25 L26.4946346,18.59375 L7.94839039,18.59375 L7.94839039,18.59375 Z M7.94839039,10.625 L7.94839039,13.28125 L26.4946346,13.28125 L26.4946346,10.625 L7.94839039,10.625 L7.94839039,10.625 Z M7.94839039,26.5625 L7.94839039,29.21875 L42.3914154,29.21875 L42.3914154,26.5625 L7.94839039,26.5625 L7.94839039,26.5625 Z M7.94839039,34.53125 L7.94839039,37.1875 L42.3914154,37.1875 L42.3914154,34.53125 L7.94839039,34.53125 L7.94839039,34.53125 Z M7.94839039,42.5 L7.94839039,45.15625 L42.3914154,45.15625 L42.3914154,42.5 L7.94839039,42.5 L7.94839039,42.5 Z M33.1182933,66.40625 C36.776439,66.40625 39.741952,63.433141 39.741952,59.765625 C39.741952,56.098109 36.776439,53.125 33.1182933,53.125 C29.4601476,53.125 26.4946346,56.098109 26.4946346,59.765625 C26.4946346,63.433141 29.4601476,66.40625 33.1182933,66.40625 L33.1182933,66.40625 Z" id="document-certificate"></path>
                                </g>
                            </g>
                        </g>
                    </g>
                </g>
            </g>
        </g>
    </g>
</svg>