<?xml version="1.0" encoding="UTF-8"?>
<svg width="55px" height="51px" viewBox="0 0 55 51" version="1.1" xmlns="http://www.w3.org/2000/svg" xmlns:xlink="http://www.w3.org/1999/xlink">
    <!-- Generator: sketchtool 41.2 (35397) - http://www.bohemiancoding.com/sketch -->
    <title>BFC9B10B-8D63-491C-81FA-BECFB0D620FE</title>
    <desc>Created with sketchtool.</desc>
    <defs></defs>
    <g id="Page-1" stroke="none" stroke-width="1" fill="none" fill-rule="evenodd">
        <g id="Nutrition---Gut-Health---v2" transform="translate(-330.000000, -11849.000000)" stroke="#0A55F7" stroke-width="2">
            <g id="Group-26" transform="translate(214.000000, 11850.000000)">
                <g id="Group-50" transform="translate(59.000000, 0.000000)">
                    <g id="Lime" transform="translate(58.000000, 0.000000)">
                        <path d="M49.853,29.452 L49.651,29.452 C48.409,21.661 41.529,15.7 33.228,15.7 C24.926,15.7 18.046,21.661 16.804,29.452 L16.603,29.452 C15.296,29.452 14.228,30.755 14.228,32.347 C14.228,33.94 15.296,35.243 16.603,35.243 L16.936,35.243 C18.476,42.676 25.185,48.271 33.228,48.271 C41.271,48.271 47.979,42.676 49.519,35.243 L49.853,35.243 C51.159,35.243 52.228,33.94 52.228,32.347 C52.228,30.755 51.159,29.452 49.853,29.452 L49.853,29.452 Z" id="Path"></path>
                        <path d="M14.228,32.347 C14.228,30.755 15.296,29.452 16.603,29.452 L16.804,29.452 C18.046,21.661 24.926,15.7 33.228,15.7 C33.537,15.7 33.84,15.724 34.146,15.741 C33.695,10.75 30.971,5.983 26.335,3.082 C19.297,-1.322 10.303,0.082 5.117,6.028 L4.947,5.921 C3.839,5.228 2.242,5.766 1.397,7.115 C0.553,8.465 0.768,10.137 1.875,10.83 L2.157,11.006 C-0.48,18.125 2.239,26.426 9.057,30.693 C10.711,31.728 12.474,32.436 14.269,32.846 C14.246,32.683 14.228,32.518 14.228,32.347 L14.228,32.347 Z" id="Path"></path>
                        <path d="M37.728,22.271 C40.765,22.271 43.228,24.734 43.228,27.771 M11.527,6.271 C13.408,3.511 17.278,2.872 20.169,4.843" id="Stroke-345" stroke-linecap="round"></path>
                    </g>
                </g>
            </g>
        </g>
    </g>
</svg>