<?xml version="1.0" encoding="UTF-8"?>
<svg width="63px" height="62px" viewBox="0 0 63 62" version="1.1" xmlns="http://www.w3.org/2000/svg" xmlns:xlink="http://www.w3.org/1999/xlink">
    <!-- Generator: sketchtool 41.2 (35397) - http://www.bohemiancoding.com/sketch -->
    <title>C238E089-8E2C-47FD-A19F-7C47554A59E7</title>
    <desc>Created with sketchtool.</desc>
    <defs></defs>
    <g id="Page-1" stroke="none" stroke-width="1" fill="none" fill-rule="evenodd">
        <g id="Nutrition---Gut-Health---v2" transform="translate(-405.000000, -12784.000000)" fill="#0A55F7">
            <g id="Group-78" transform="translate(309.000000, 12642.000000)">
                <g id="Group-80" transform="translate(96.000000, 142.000000)">
                    <g id="if_chat-80px_510931">
                        <g id="Icons">
                            <g id="Group">
                                <g id="if_Chat_bubble_2202260">
                                    <g id="Layer_1">
                                        <g id="Group-77">
                                            <path d="M57.2727273,61.9977273 L38.2295455,56.7 C36.225,57.1295455 34.0772727,57.2727273 31.5,57.2727273 C13.3159091,57.2727273 0,45.2454545 0,28.6363636 C0,20.9045455 2.72045455,14.175 8.01818182,8.87727273 C13.8886364,3.15 22.3363636,0 31.5,0 C49.6840909,0 63,12.0272727 63,28.6363636 C63,34.7931818 60.9954545,40.8068182 57.2727273,45.5318182 L57.2727273,61.9977273 Z M38.2295455,53.8363636 L54.4090909,58.275 L54.4090909,44.6727273 L54.6954545,44.2431818 C58.275,39.8045455 60.1363636,34.3636364 60.1363636,28.6363636 C60.1363636,13.7454545 48.1090909,2.86363636 31.5,2.86363636 C22.9090909,2.86363636 15.3204545,5.72727273 10.0227273,10.8818182 C5.29772727,15.6068182 2.86363636,21.7636364 2.86363636,28.6363636 C2.86363636,43.5272727 14.8909091,54.4090909 31.5,54.4090909 C34.0772727,54.4090909 36.0818182,54.2659091 37.9431818,53.8363636 L38.2295455,53.8363636 Z" id="Shape"></path>
                                            <g id="Group-76" transform="translate(15.534247, 25.027397)">
                                                <ellipse id="Oval" cx="4.36480493" cy="4.49637389" rx="3.98392694" ry="4.06124093"></ellipse>
                                                <ellipse id="Oval" cx="16.3165858" cy="4.49637389" rx="3.98392694" ry="4.06124093"></ellipse>
                                                <ellipse id="Oval" cx="28.2683666" cy="4.49637389" rx="3.98392694" ry="4.06124093"></ellipse>
                                            </g>
                                        </g>
                                    </g>
                                </g>
                            </g>
                        </g>
                    </g>
                </g>
            </g>
        </g>
    </g>
</svg>