<?xml version="1.0" encoding="UTF-8"?>
<svg width="63px" height="89px" viewBox="0 0 63 89" version="1.1" xmlns="http://www.w3.org/2000/svg" xmlns:xlink="http://www.w3.org/1999/xlink">
    <!-- Generator: sketchtool 41.2 (35397) - http://www.bohemiancoding.com/sketch -->
    <title>0614DE28-CAE1-4178-BA3B-F594BB90C0E9</title>
    <desc>Created with sketchtool.</desc>
    <defs></defs>
    <g id="Page-1" stroke="none" stroke-width="1" fill="none" fill-rule="evenodd">
        <g id="Nutrition---Gut-Health---v2" transform="translate(-405.000000, -12947.000000)">
            <g id="Group-78" transform="translate(309.000000, 12642.000000)">
                <g id="Group-80" transform="translate(96.000000, 142.000000)">
                    <g id="if_simpline_39_2305601" transform="translate(2.000000, 165.000000)">
                        <g id="Layer_1">
                            <path d="M17.0789474,12.3636364 L6.21052632,12.3636364 C2.78054734,12.3636364 0,15.1313306 0,18.5454545 L0,78.8181818 C0,82.2323057 2.78054734,85 6.21052632,85 L52.7894737,85 C56.2194527,85 59,82.2323057 59,78.8181818 L59,18.5454545 C59,15.1313306 56.2194527,12.3636364 52.7894737,12.3636364 L41.9210526,12.3636364" id="Shape" stroke="#0A55F7" stroke-width="3"></path>
                            <ellipse id="Oval" stroke="#0A55F7" stroke-width="3" cx="29.5" cy="4.63636364" rx="4.65789474" ry="4.63636364"></ellipse>
                            <path d="M23.2894737,9.27272727 L35.7105263,9.27272727 C37.7694438,9.27272727 39.7440334,10.0868483 41.1999079,11.5359931 C42.6557824,12.9851378 43.4736842,14.9505999 43.4736842,17 L43.4736842,17 L15.5263158,17 L15.5263158,17 C15.5263158,14.9505999 16.3442176,12.9851378 17.8000921,11.5359931 C19.2559666,10.0868483 21.2305562,9.27272727 23.2894737,9.27272727 L23.2894737,9.27272727 Z" id="Shape" stroke="#0A55F7" stroke-width="3"></path>
                            <ellipse id="Oval" fill="#0A55F7" cx="15.5263158" cy="37.0909091" rx="3.10526316" ry="3.09090909"></ellipse>
                            <path d="M26.3947368,37.0909091 L45.0263158,37.0909091" id="Shape" stroke="#0A55F7" stroke-width="2"></path>
                            <ellipse id="Oval" fill="#0A55F7" cx="15.5263158" cy="47.9090909" rx="3.10526316" ry="3.09090909"></ellipse>
                            <path d="M26.3947368,47.9090909 L45.0263158,47.9090909" id="Shape" stroke="#0A55F7" stroke-width="2"></path>
                            <ellipse id="Oval" fill="#0A55F7" cx="15.5263158" cy="58.7272727" rx="3.10526316" ry="3.09090909"></ellipse>
                            <path d="M26.3947368,58.7272727 L45.0263158,58.7272727" id="Shape" stroke="#0A55F7" stroke-width="2"></path>
                        </g>
                    </g>
                </g>
            </g>
        </g>
    </g>
</svg>